<mxfile host="app.diagrams.net" agent="Mozilla/5.0 (Windows NT 10.0; Win64; x64) AppleWebKit/537.36 (KHTML, like Gecko) Chrome/140.0.0.0 Safari/537.36" version="28.2.5">
  <diagram name="Página-1" id="7dhOephFGzvKwFTrcDKp">
    <mxGraphModel dx="1214" dy="624" grid="1" gridSize="10" guides="1" tooltips="1" connect="1" arrows="1" fold="1" page="1" pageScale="1" pageWidth="827" pageHeight="1169" math="0" shadow="0">
      <root>
        <mxCell id="0" />
        <mxCell id="1" parent="0" />
        <mxCell id="ClegtL05TQ3ZIqgKKGhH-1" value="Usuario" style="shape=umlActor;verticalLabelPosition=bottom;verticalAlign=top;html=1;outlineConnect=0;" parent="1" vertex="1">
          <mxGeometry x="30" y="40" width="30" height="60" as="geometry" />
        </mxCell>
        <mxCell id="ClegtL05TQ3ZIqgKKGhH-5" value="" style="endArrow=none;dashed=1;html=1;dashPattern=1 3;strokeWidth=2;rounded=0;" parent="1" edge="1">
          <mxGeometry width="50" height="50" relative="1" as="geometry">
            <mxPoint x="50" y="360" as="sourcePoint" />
            <mxPoint x="50" y="130" as="targetPoint" />
          </mxGeometry>
        </mxCell>
        <mxCell id="ClegtL05TQ3ZIqgKKGhH-7" value="" style="endArrow=none;dashed=1;html=1;dashPattern=1 3;strokeWidth=2;rounded=0;entryX=0.5;entryY=1;entryDx=0;entryDy=0;" parent="1" edge="1">
          <mxGeometry width="50" height="50" relative="1" as="geometry">
            <mxPoint x="320" y="360" as="sourcePoint" />
            <mxPoint x="320" y="100" as="targetPoint" />
          </mxGeometry>
        </mxCell>
        <mxCell id="ClegtL05TQ3ZIqgKKGhH-10" value="" style="endArrow=classic;html=1;rounded=0;" parent="1" edge="1">
          <mxGeometry width="50" height="50" relative="1" as="geometry">
            <mxPoint x="50" y="160" as="sourcePoint" />
            <mxPoint x="320" y="160" as="targetPoint" />
          </mxGeometry>
        </mxCell>
        <mxCell id="ClegtL05TQ3ZIqgKKGhH-45" value="V_ReviewForm" style="rounded=0;whiteSpace=wrap;html=1;fillColor=#ffe6cc;strokeColor=#d79b00;" parent="1" vertex="1">
          <mxGeometry x="270" y="60" width="100" height="40" as="geometry" />
        </mxCell>
        <mxCell id="ClegtL05TQ3ZIqgKKGhH-174" value="" style="endArrow=classic;html=1;rounded=0;" parent="1" edge="1">
          <mxGeometry width="50" height="50" relative="1" as="geometry">
            <mxPoint x="470" y="280" as="sourcePoint" />
            <mxPoint x="50" y="280" as="targetPoint" />
          </mxGeometry>
        </mxCell>
        <mxCell id="ClegtL05TQ3ZIqgKKGhH-179" value="Selecciona imágenes" style="text;html=1;align=left;verticalAlign=middle;resizable=0;points=[];autosize=1;strokeColor=none;fillColor=none;" parent="1" vertex="1">
          <mxGeometry x="50" y="140" width="140" height="30" as="geometry" />
        </mxCell>
        <mxCell id="ClegtL05TQ3ZIqgKKGhH-182" value="Muestra error:&lt;div&gt;&quot;El archivo que subiste no es válido&quot;&lt;/div&gt;" style="text;html=1;align=left;verticalAlign=middle;resizable=0;points=[];autosize=1;strokeColor=none;fillColor=none;" parent="1" vertex="1">
          <mxGeometry x="50" y="240" width="220" height="40" as="geometry" />
        </mxCell>
        <mxCell id="ClegtL05TQ3ZIqgKKGhH-183" value="" style="endArrow=none;dashed=1;html=1;dashPattern=1 3;strokeWidth=2;rounded=0;entryX=0.5;entryY=1;entryDx=0;entryDy=0;" parent="1" edge="1">
          <mxGeometry width="50" height="50" relative="1" as="geometry">
            <mxPoint x="470" y="360" as="sourcePoint" />
            <mxPoint x="470" y="100" as="targetPoint" />
          </mxGeometry>
        </mxCell>
        <mxCell id="ClegtL05TQ3ZIqgKKGhH-184" value="V_FileUpload" style="rounded=0;whiteSpace=wrap;html=1;fillColor=#ffe6cc;strokeColor=#d79b00;" parent="1" vertex="1">
          <mxGeometry x="420" y="60" width="100" height="40" as="geometry" />
        </mxCell>
        <mxCell id="ClegtL05TQ3ZIqgKKGhH-185" value="" style="endArrow=classic;html=1;rounded=0;" parent="1" edge="1">
          <mxGeometry width="50" height="50" relative="1" as="geometry">
            <mxPoint x="470" y="230" as="sourcePoint" />
            <mxPoint x="470" y="250" as="targetPoint" />
            <Array as="points">
              <mxPoint x="510" y="230" />
              <mxPoint x="510" y="250" />
            </Array>
          </mxGeometry>
        </mxCell>
        <mxCell id="ClegtL05TQ3ZIqgKKGhH-186" value="Valida archivos" style="text;html=1;align=center;verticalAlign=middle;resizable=0;points=[];autosize=1;strokeColor=none;fillColor=none;" parent="1" vertex="1">
          <mxGeometry x="465" y="208" width="100" height="30" as="geometry" />
        </mxCell>
      </root>
    </mxGraphModel>
  </diagram>
</mxfile>
